<?xml version="1.0" encoding="utf-8"?>
<!-- Generator: Adobe Illustrator 27.2.0, SVG Export Plug-In . SVG Version: 6.00 Build 0)  -->
<svg version="1.1" id="Layer_1" xmlns="http://www.w3.org/2000/svg" xmlns:xlink="http://www.w3.org/1999/xlink" x="0px" y="0px"
	 viewBox="0 0 157.4 76.3" style="enable-background:new 0 0 157.4 76.3;" xml:space="preserve">
<style type="text/css">
	.st0{fill:#F7931A;}
	.st1{fill:#FFFFFF;}
	.st2{fill:#345D9D;}
	.st3{fill:#8A92B2;}
	.st4{fill:#62688F;}
	.st5{fill:#454A75;}
	.st6{fill:#F0F1F3;}
	.st7{fill:#2573C2;}
	.st8{fill:#53AE94;}
	.st9{fill:#4CC847;}
	.st10{fill:#0897D1;}
</style>
<g>
	<path class="st0" d="M25.3,66.3c-1.1,4.5-5.7,7.2-10.2,6.1S7.9,66.8,9,62.3s5.7-7.2,10.2-6.1C23.7,57.3,26.4,61.8,25.3,66.3z"/>
	<path class="st1" d="M20.8,63.1C21,62,20.1,61.4,19,61l0.4-1.5l-0.9-0.2l-0.4,1.5c-0.2-0.1-0.5-0.1-0.7-0.2l0.4-1.5l-0.9-0.2
		l-0.4,1.5c-0.2,0-0.4-0.1-0.6-0.1l0,0L14.6,60l-0.2,1l0.7,0.2c0.4,0.1,0.4,0.3,0.4,0.5L15,63.3h0.1H15l-0.6,2.4
		c0,0.1-0.2,0.3-0.4,0.2l-0.7-0.2l-0.5,1.1l1.2,0.3c0.3,0.1,0.5,0.1,0.7,0.2l-0.4,1.5l0.9,0.2l0.4-1.5c0.3,0.1,0.5,0.1,0.7,0.2
		L16,69.2l0.9,0.2l0.4-1.5c1.6,0.3,2.8,0.2,3.3-1.2c0.4-1.1,0-1.8-0.8-2.2C20.3,64.3,20.7,63.9,20.8,63.1z M18.7,66.1
		c-0.3,1.1-2.2,0.5-2.8,0.4l0.5-2C17,64.6,19,64.9,18.7,66.1z M19,63.1c-0.3,1-1.9,0.5-2.4,0.4l0.5-1.8C17.6,61.8,19.3,62,19,63.1z"
		/>
</g>
<g>
	<circle class="st1" cx="52.5" cy="64.3" r="7.2"/>
	<path class="st2" d="M52.5,56.2c-4.5,0-8.1,3.6-8.1,8.1s3.6,8.1,8.1,8.1s8.1-3.6,8.1-8.1l0,0l0,0C60.6,59.8,57,56.2,52.5,56.2
		L52.5,56.2L52.5,56.2z M52.6,64.6l-0.8,2.8h4.5c0.1,0,0.2,0.1,0.2,0.2l0,0v0.1L56.1,69c0,0.1-0.2,0.2-0.3,0.2h-6.9l1.2-3.9
		l-1.3,0.4l0.3-0.9l1.3-0.4l1.6-5.5c0-0.1,0.2-0.2,0.3-0.2H54c0.1,0,0.2,0.1,0.2,0.2l0,0V59l-1.4,4.7l1.3-0.4l-0.3,0.9L52.6,64.6z"
		/>
</g>
<g>
	<path class="st3" d="M35.3,55.5l-5.4,8.9l5.4-2.5V55.5z"/>
	<path class="st4" d="M35.3,61.9l-5.4,2.5l5.4,3.2V61.9z"/>
	<path class="st4" d="M40.6,64.4l-5.4-8.9v6.4L40.6,64.4z"/>
	<path class="st5" d="M35.3,67.5l5.4-3.2l-5.4-2.5V67.5z"/>
	<path class="st3" d="M29.9,65.4l5.4,7.6v-4.4L29.9,65.4z"/>
	<path class="st4" d="M35.3,68.5v4.4l5.4-7.6L35.3,68.5z"/>
</g>
<g>
	<path d="M151.1,0.1H6.5C3,0.1,0.1,3,0.1,6.5V47c0,3.5,2.9,6.4,6.4,6.4h144.6c3.5,0,6.4-2.9,6.4-6.4V6.5
		C157.5,3,154.6,0.1,151.1,0.1z"/>
</g>
<g>
	<path class="st6" d="M8.8,32.3l2.1-9.3h3.4c1.6,0,2.6,1.1,2.6,2.4c0,1.4-1,3.2-3.6,3.2h-2.6l-0.8,3.7H8.8z M13.5,27.5
		c1.5,0,2.3-1,2.3-2.1c0-0.8-0.6-1.5-1.6-1.5h-2.4L11,27.5H13.5z"/>
	<path class="st6" d="M22.9,26.5l0.2-1.1h1.1l-1.5,6.9h-1l0.2-1c-0.6,0.7-1.3,1-2.2,1c-1.6,0-2.6-1-2.6-2.8c0-2.2,1.4-4.3,3.5-4.3
		C21.6,25.3,22.4,25.8,22.9,26.5z M18.1,29.4c0,1.3,0.8,2,1.9,2c0.8,0,1.6-0.5,2.1-1.1l0.7-3c-0.3-0.6-1.1-1.1-2-1.1
		C19.1,26.3,18.1,27.8,18.1,29.4z"/>
	<path class="st6" d="M24.2,34c0.2,0.1,0.4,0.1,0.7,0.1c0.4,0,0.7-0.2,1-0.7l0.7-1.1l-1.4-6.7h1.1l1,5.5l3.5-5.5H32l-5.2,8.1
		c-0.6,0.9-1.2,1.4-2.1,1.4c-0.3,0-0.6-0.1-0.9-0.2L24.2,34z"/>
	<path class="st6" d="M41.1,32.3l-0.6-5.4l-3,5.4h-1l-0.7-6.7h1.1l0.4,5.4l3-5.4h0.9l0.6,5.4l2.8-5.4h1.1L42,32.4L41.1,32.3
		C41.1,32.4,41.1,32.3,41.1,32.3z"/>
	<path class="st6" d="M45.5,32.3l1.5-6.8h1.1l-1.5,6.8H45.5z M47.2,23.9c0-0.5,0.4-0.8,0.8-0.8s0.6,0.3,0.6,0.6
		c0,0.5-0.4,0.8-0.8,0.8C47.4,24.5,47.2,24.3,47.2,23.9z"/>
	<path class="st6" d="M49.1,31.3c0-0.1,0-0.3,0-0.4l1-4.4H49l0.2-0.9h1.1l0.4-1.8h1.1l-0.4,1.8h1.4l-0.2,0.9h-1.4l-0.9,4
		c0,0.1,0,0.2,0,0.3c0,0.4,0.2,0.6,0.7,0.6c0.3,0,0.5-0.1,0.6-0.2l0.1,0.8c-0.3,0.2-0.6,0.3-1,0.3C49.7,32.5,49.1,32.1,49.1,31.3z"
		/>
	<path class="st6" d="M57.3,32.3l1-4.4c0-0.1,0.1-0.4,0.1-0.5c0-0.8-0.6-1.1-1.4-1.1c-0.8,0-1.6,0.5-2.1,1.1l-1.1,4.9h-1.1l2.1-9.3
		h1.1l-0.8,3.6c0.6-0.6,1.4-1.1,2.4-1.1c1.2,0,2,0.6,2,1.7c0,0.1,0,0.4-0.1,0.6l-1,4.7h-1.1V32.3z"/>
</g>
<g>
	<circle cx="96.8" cy="64.3" r="8.3"/>
	<path class="st1" d="M100.6,59.7h1.5L98.9,63c-1.2,1.2-3,1.2-4.2,0l-3.2-3.3H93l2.4,2.5c0.7,0.8,1.9,0.8,2.7,0L100.6,59.7z
		 M93,68.9h-1.5l3.2-3.4c1.2-1.2,3-1.2,4.2,0l3.2,3.4h-1.5l-2.5-2.6c-0.7-0.8-1.9-0.8-2.7,0L93,68.9z"/>
</g>
<g>
	<circle class="st7" cx="118.9" cy="64.3" r="8.4"/>
	<g>
		<path class="st1" d="M124.4,62.1c0-0.2-0.1-0.4-0.2-0.5c-0.1-0.2-0.2-0.3-0.4-0.4c-0.2-0.1-0.4-0.1-0.6-0.1h-7.5l-0.5,1.6h6.8
			l-1.1,3.3h-6.8l-0.5,1.6h7.5c0.2,0,0.4,0,0.7-0.1c0.2-0.1,0.5-0.2,0.7-0.4c0.2-0.2,0.4-0.3,0.5-0.5c0.1-0.2,0.2-0.4,0.3-0.6l1-3.1
			C124.4,62.5,124.5,62.3,124.4,62.1L124.4,62.1z"/>
		<path class="st1" d="M117.9,63.5h-4l-0.5,1.5h4L117.9,63.5z"/>
	</g>
</g>
<g>
	<path class="st8" d="M141.1,56.1c4.5,0,8.2,3.7,8.2,8.2s-3.7,8.2-8.2,8.2c-4.5,0-8.2-3.7-8.2-8.2C132.9,59.8,136.6,56.1,141.1,56.1
		"/>
	<path class="st1" d="M142.1,63.2V62h2.8v-1.9h-7.6V62h2.8v1.2c-2.3,0.1-4,0.6-4,1.1c0,0.5,1.7,1,4,1.1v3.9h2v-3.9
		c2.3-0.1,4-0.6,4-1.1S144.4,63.3,142.1,63.2 M142.1,65L142.1,65c-0.1,0-0.3,0-1,0c-0.5,0-0.9,0-1,0v0c-2-0.1-3.5-0.4-3.5-0.9
		c0-0.4,1.5-0.8,3.5-0.9v1.4c0.1,0,0.5,0,1,0c0.6,0,0.9,0,1,0v-1.4c2,0.1,3.5,0.4,3.5,0.9C145.6,64.6,144.1,65,142.1,65"/>
</g>
<g>
	<path class="st9" d="M72.1,55.2h-6.6v6.7C66.4,58.6,68.9,56.1,72.1,55.2z"/>
	<path class="st9" d="M83.7,61.9v-6.7h-6.6C80.3,56.1,82.8,58.6,83.7,61.9z"/>
	<path class="st9" d="M77,73.3h6.6v-6.7C82.8,69.9,80.3,72.5,77,73.3z"/>
	<path class="st9" d="M65.5,66.7v6.7h6.6C68.9,72.5,66.4,69.9,65.5,66.7z"/>
	<circle class="st9" cx="74.6" cy="64.3" r="7.7"/>
	<path class="st1" d="M77.2,61.4c-0.3-1.1-1.4-1.2-2.6-1l-0.4-1.5l-0.9,0.3l0.4,1.5c-0.2,0-0.5,0.2-0.7,0.2l-0.4-1.5l-0.9,0.3
		l0.4,1.5c-0.2,0.1-0.4,0.1-0.6,0.2l0,0l-1.3,0.4l0.3,1l0.7-0.2c0.4-0.1,0.5,0.1,0.6,0.2l0.3,1.6l0.1,0l-0.1,0l0.6,2.4
		c0,0.1,0,0.4-0.3,0.4l-0.7,0.2l0.1,1.2l1.2-0.3c0.3-0.1,0.5-0.2,0.7-0.2l0.4,1.5l0.9-0.3l-0.4-1.5c0.3-0.1,0.5-0.2,0.7-0.2l0.5,1.5
		l0.9-0.3l-0.4-1.5c1.5-0.5,2.6-1.2,2.3-2.6c-0.2-1.2-0.9-1.6-1.8-1.6C77.4,62.7,77.5,62.1,77.2,61.4z M76.8,65
		c0.3,1.1-1.7,1.5-2.3,1.7l-0.5-2C74.6,64.5,76.5,63.8,76.8,65z M75.6,62.2c0.2,1-1.4,1.3-1.9,1.5l-0.4-1.8
		C73.8,61.8,75.4,61.1,75.6,62.2z"/>
</g>
<g>
	<g>
		<g>
			<path class="st6" d="M126.2,38.9v-11h1.2V29c0.6-0.8,1.6-1.4,2.7-1.4c2.1,0,3.6,1.6,3.6,4.2s-1.5,4.2-3.6,4.2
				c-1.1,0-2-0.5-2.7-1.4v4.3L126.2,38.9L126.2,38.9z M129.9,28.7c-1,0-1.9,0.6-2.4,1.3v3.6c0.4,0.7,1.4,1.3,2.4,1.3
				c1.6,0,2.6-1.3,2.6-3.1S131.4,28.7,129.9,28.7z"/>
			<path class="st6" d="M140.2,34.9c-0.7,0.7-1.6,1.1-2.6,1.1c-1.3,0-2.8-0.9-2.8-2.6c0-1.8,1.5-2.6,2.8-2.6c1.1,0,2,0.3,2.6,1.1
				v-1.5c0-1.1-0.9-1.7-2-1.7c-1,0-1.7,0.3-2.5,1.1l-0.6-0.9c0.9-0.9,1.9-1.3,3.2-1.3c1.7,0,3.1,0.8,3.1,2.7v5.5h-1.2L140.2,34.9
				L140.2,34.9z M140.2,32.6c-0.5-0.7-1.3-1-2.2-1c-1.1,0-2,0.7-2,1.8c0,1,0.8,1.7,2,1.7c0.9,0,1.7-0.3,2.2-1V32.6z"/>
			<path class="st6" d="M143.9,37.9c0.6,0,0.9-0.2,1.2-0.8l0.5-1.2l-3.4-8.1h1.3l2.7,6.5l2.6-6.5h1.3l-4,9.6
				c-0.5,1.1-1.3,1.6-2.4,1.6c-0.3,0-0.7,0-0.9-0.1l0.2-1.1C143.4,37.9,143.7,37.9,143.9,37.9z"/>
		</g>
		<path id="XMLID_203_" class="st6" d="M84.3,37.3h-3.9l-1.6-3.5l-1.6-3.5L72.9,21l-4.2,9.2h5.4l1.6,3.5h-8.6l-1.6,3.5h-3.9L71,16.7
			h3.9L84.3,37.3z"/>
		<path id="XMLID_201_" class="st6" d="M96.6,33.8v3.5h-8.1h-3.6v-3.5V16.8h3.6v17.1H96.6z"/>
		<path id="XMLID_199_" class="st6" d="M107.7,20.3h-6.1v17.1H98V20.3H92v-3.6H98h3.6h6.1V20.3z"/>
	</g>
	<path class="st10" d="M121.8,20.2v-3.7h-9.7l-2.8,8.7l-1,2.9h3.3l0,0h2.5c0.4,0,0.9,0.1,1.3,0.3c0.4,0.2,0.8,0.4,1.1,0.7
		c0.3,0.3,0.6,0.7,0.7,1.1c0.2,0.4,0.3,0.8,0.3,1.3c0,0.5-0.1,0.9-0.3,1.3c-0.2,0.4-0.4,0.8-0.7,1.1c-0.3,0.3-0.7,0.6-1.1,0.7
		c-0.4,0.2-0.9,0.3-1.3,0.3c-0.5,0-0.9-0.1-1.3-0.3c-0.4-0.2-0.8-0.4-1.1-0.7c-0.3-0.3-0.6-0.7-0.8-1.1c-0.2-0.4-0.3-0.8-0.3-1.3
		h-3.8c0,0.9,0.2,1.8,0.6,2.7s0.9,1.6,1.6,2.3c0.7,0.7,1.5,1.2,2.4,1.5c0.9,0.3,1.8,0.6,2.8,0.6c1,0,1.9-0.2,2.8-0.6
		c0.9-0.3,1.7-0.9,2.3-1.5c0.7-0.7,1.2-1.5,1.6-2.3c0.3-0.9,0.6-1.8,0.6-2.7c0-0.9-0.2-1.9-0.6-2.7c-0.3-0.9-0.9-1.6-1.6-2.3
		c-0.7-0.7-1.5-1.2-2.3-1.5s-1.8-0.6-2.8-0.6h-0.6l1.3-4.2L121.8,20.2L121.8,20.2z"/>
</g>
</svg>
